# xmcd
#
# Track frame offsets:
#	150
#	6559
#	46001
#	62868
#	87683
#	102991
#	130907
#	155438
#	177380
#	202771
#	225612
#	263313
#	285111
#	308950
#
# Disc length: 4300 seconds
#
# Revision: 1
# Processed by: cddbd v1.5.2PL0 Copyright (c) Steve Scherf et al.
# Submitted via: audiograbber 1.83.01
#
DISCID=b410ca0e
DTITLE=Grateful Dead - 73-03-28A Springfield Civic Centre Arena, Springfield MA
DYEAR=1900
DGENRE=
TTITLE0=Cumberland Blues
TTITLE1=Here Comes Sunshine
TTITLE2=Mexicali Blues
TTITLE3=Wave That Flag
TTITLE4=Beat It On Down The Line
TTITLE5=Loser
TTITLE6=Jack Straw
TTITLE7=Box Of Rain
TTITLE8=They Love Each Other
TTITLE9=El Paso
TTITLE10=Row Jimmy
TTITLE11=Around and Around
TTITLE12=Brown Eyed Women
TTITLE13=You Ain't Woman Enough
EXTD=
EXTT0=
EXTT1=
EXTT2=
EXTT3=
EXTT4=
EXTT5=
EXTT6=
EXTT7=
EXTT8=
EXTT9=
EXTT10=
EXTT11=
EXTT12=
EXTT13=
PLAYORDER=
